<svg xmlns="http://www.w3.org/2000/svg" viewBox="0 0 1707 1365"><path d="M501 1326c-31-3-60-20-76-45a94 94 0 0 1-14-54 2921 2921 0 0 1 35-191l14-75a113 113 0 0 1 83-99l12-4h257v-21c0-26 1-29 12-34l6-3 1-64 1-105v-41h44v210l7 3c11 5 12 8 13 34v21h125c117 0 126 0 137 2a113 113 0 0 1 88 89 11092 11092 0 0 1 52 285c0 8-4 26-8 35-6 14-21 31-33 40-8 5-23 12-33 15l-23 3c-14 1-16 0-18-2a4658 4658 0 0 1-113-123l-10-11-9 9c-7 6-14 10-23 15a86 86 0 0 1-82 1c-11-5-15-8-23-17-9-8-12-12-17-24l-7-13h-90l-7 14a90 90 0 0 1-121 41c-8-4-16-10-27-20l-7-5-12 13-53 58-50 55-9 9h-9l-13-1zm238-143c11-3 21-12 28-24 4-8 4-9 4-21s0-14-4-22c-5-10-13-18-23-23-6-3-9-4-20-4s-14 1-21 4c-10 5-19 14-24 24-3 7-4 10-4 21s1 13 4 20c5 11 17 22 28 25s21 3 32 0zm266-2c9-4 19-14 24-23 3-7 3-9 3-21 0-11 0-15-3-20-4-9-14-20-24-24-6-4-9-4-20-4s-14 0-21 4c-10 5-18 13-23 23-3 7-3 9-3 21s0 14 3 21a49 49 0 0 0 64 23zm112-106c5-2 12-10 13-16 3-19-13-36-32-31s-25 29-11 43c8 8 20 9 30 4zm-483-28v-24h48v-51h-48v-49h-51v49h-49v51h49v48h51zm286-31c14-4 25-8 24-9l-24-9-25-8c-2-1-2 3-2 17l1 17 26-8zm142 4c19-9 18-37-2-45-21-10-42 13-33 34 6 13 21 18 35 11zm111 0c6-3 9-6 12-12 2-6 2-13 0-20-8-19-33-21-45-4-4 6-5 18-2 25 4 6 8 10 13 12 5 3 17 2 22-1zm-345-13v-12h-52v24h52zm284-39c7-2 15-9 17-15 3-8 1-19-4-25-6-7-14-11-22-10-22 2-31 28-16 43 8 8 15 10 25 7zm-952 125v-21l151-1V823l1-304v-57l4-2a8436 8436 0 0 0 168-118c1 0 29 18 34 23l3 2v-44h17c12 0 17 1 17 2l1 35v33l19 13 30 22 28 19 17 12V147l4-2a2683 2683 0 0 0 157-85c38-20 43-22 45-21l28 16 138 74 33 18v154l1 157a9948 9948 0 0 0 152-105l17-13 9 6 20 15 12 8 1-23v-23h34l1 72 17 12 47 33 31 22 1 609h148v43l-242-1-2-12-7-35c-4-20-5-27-5-48l-1-24h39v77h33V744l-18-3a661 661 0 0 0-253 3c-1 1-2 6-2 31v30h24c27 0 31 1 37 8l9 18c0 2-16 2-72 2h-71V477l-21-5c-51-12-79-15-141-15a506 506 0 0 0-160 20l-1 178v177l-142 1 3-8c8-19 12-20 43-20h24v-30c0-27 0-30-2-31-9-2-60-10-87-12a950 950 0 0 0-181 12c-3 1-3 10-2 164v164l6 1 15-1 10-1-1-38v-39h37v25c0 23 0 27-5 56l-5 35v3h-74l-122 1-48 1zm207-372a702 702 0 0 1 250 3l3 1v-59l-7-2a759 759 0 0 0-199-9l-63 10-4 1v29l1 29 20-3zm743-1c43-7 61-8 114-8a610 610 0 0 1 135 12c2 0 2-2 2-29v-29l-5-1a741 741 0 0 0-180-12c-25 2-47 5-70 10l-18 3v58h3l19-4zm-732-79a573 573 0 0 1 170-6l69 10 3 1V490l-11-3c-54-15-133-19-195-10l-6 1 3-5 44-68 11-16-8 7-30 26-70 60-11 9v155l5-1 26-4zm729 1a698 698 0 0 1 251 3l3 1V490l-10-3a553 553 0 0 0-200-11l23-38 29-46-20 17-88 76-7 5v156l3-1 16-2zM707 451a673 673 0 0 1 307 4v-53l-17-4c-53-13-86-17-146-17-54 0-93 4-141 16l-19 5v26l1 27 15-4zm-1-74a676 676 0 0 1 308 3l1-27v-27l-17-4c-52-13-99-18-160-16-51 1-104 8-140 19l-7 2v26l1 27 14-3zm-6-74a782 782 0 0 1 141-17c64-2 101 2 171 17l3 1V171l-18-4c-35-9-69-13-112-15-31-1-77 0-100 3-20 2-20 2-10-9 17-18 51-58 50-58l-35 23c-34 23-61 40-86 55l-13 7v66c0 63 0 66 2 66l8-2zm53-59v-56l46 1v56h-23l-23-1zm77 0-1-28v-28h47l-1 57h-22l-23-1zm76-27v-29h48v57h-48z"/></svg>